<svg width="512" height="512" viewBox="0 0 512 512" fill="none" xmlns="http://www.w3.org/2000/svg">
<g clip-path="url(#clip0_16_3)">
<path d="M30 -0.4375C31.2169 -0.498086 32.4338 -0.558672 33.6875 -0.621094C43.9599 0.0989932 52.368 7.48936 59.2256 14.5041C60.4967 15.7675 60.4967 15.7675 61.7935 17.0564C64.1147 19.3695 66.4221 21.6954 68.7241 24.0277C71.2201 26.5498 73.7336 29.0544 76.245 31.5612C80.5845 35.8976 84.913 40.2447 89.2339 44.5995C95.4812 50.8957 101.745 57.1751 108.013 63.4506C118.184 73.6347 128.342 83.8321 138.491 94.0381C148.345 103.947 158.205 113.85 168.074 123.744C168.683 124.355 169.292 124.966 169.92 125.595C172.976 128.659 176.033 131.723 179.089 134.787C204.412 160.172 229.713 185.579 255 211C258.119 209.615 260.229 208.016 262.629 205.6C263.337 204.893 264.044 204.186 264.774 203.457C265.544 202.677 266.314 201.897 267.107 201.093C267.931 200.267 268.755 199.44 269.604 198.589C271.89 196.294 274.171 193.995 276.451 191.694C278.911 189.213 281.376 186.738 283.842 184.262C288.114 179.97 292.384 175.674 296.651 171.377C303.402 164.58 310.163 157.793 316.926 151.007C319.24 148.684 321.555 146.362 323.87 144.039C324.448 143.458 325.027 142.878 325.623 142.28C332.208 135.671 338.791 129.06 345.374 122.448C345.975 121.843 346.577 121.239 347.197 120.616C356.936 110.833 366.668 101.041 376.397 91.2481C386.394 81.1867 396.402 71.1369 406.42 61.0969C412.594 54.9084 418.759 48.7106 424.911 42.5004C429.133 38.2399 433.367 33.9905 437.608 29.7495C440.052 27.3057 442.491 24.8574 444.916 22.3955C447.556 19.7211 450.214 17.066 452.877 14.4147C454.005 13.2582 454.005 13.2582 455.157 12.0783C461.312 6.0135 469.239 0.196307 478.102 -0.726562C488.656 -0.422329 497.437 1.09358 505 9C509.919 16.1177 512.14 21.3404 512.438 30C512.498 31.2169 512.559 32.4338 512.621 33.6875C511.901 43.9599 504.511 52.368 497.496 59.2256C496.232 60.4967 496.233 60.4967 494.944 61.7935C492.63 64.1147 490.305 66.4221 487.972 68.7241C485.45 71.2201 482.946 73.7336 480.439 76.245C476.102 80.5845 471.755 84.913 467.4 89.2339C461.104 95.4812 454.825 101.745 448.549 108.013C438.365 118.184 428.168 128.342 417.962 138.491C408.053 148.345 398.15 158.205 388.256 168.074C387.34 168.988 387.34 168.988 386.405 169.92C383.341 172.976 380.277 176.033 377.213 179.089C351.828 204.412 326.421 229.713 301 255C302.385 258.119 303.984 260.229 306.4 262.629C307.107 263.337 307.814 264.044 308.543 264.774C309.713 265.929 309.713 265.929 310.907 267.107C311.733 267.931 312.56 268.755 313.411 269.604C315.706 271.89 318.005 274.171 320.306 276.451C322.787 278.911 325.263 281.376 327.738 283.842C332.03 288.114 336.326 292.384 340.623 296.651C347.42 303.402 354.207 310.163 360.993 316.926C363.316 319.24 365.638 321.555 367.961 323.87C368.542 324.448 369.122 325.027 369.72 325.623C376.329 332.208 382.94 338.791 389.552 345.374C390.459 346.276 390.459 346.276 391.384 347.197C401.167 356.936 410.959 366.668 420.752 376.397C430.813 386.394 440.863 396.402 450.903 406.42C457.092 412.594 463.289 418.759 469.5 424.911C473.76 429.133 478.009 433.367 482.25 437.608C484.694 440.052 487.143 442.491 489.604 444.916C492.279 447.556 494.934 450.214 497.585 452.877C498.356 453.629 499.127 454.382 499.922 455.157C505.986 461.312 511.804 469.239 512.727 478.102C512.422 488.656 510.906 497.437 503 505C495.882 509.919 490.66 512.14 482 512.438C480.783 512.498 479.566 512.559 478.312 512.621C468.04 511.901 459.632 504.511 452.774 497.496C451.927 496.654 451.08 495.811 450.207 494.944C447.885 492.63 445.578 490.305 443.276 487.972C440.78 485.45 438.266 482.946 435.755 480.439C431.415 476.102 427.087 471.755 422.766 467.4C416.519 461.104 410.255 454.825 403.987 448.549C393.816 438.365 383.658 428.168 373.509 417.962C363.655 408.053 353.795 398.15 343.926 388.256C343.012 387.34 343.012 387.34 342.08 386.405C339.024 383.341 335.967 380.277 332.911 377.213C307.588 351.828 282.287 326.421 257 301C253.881 302.385 251.771 303.984 249.371 306.4C248.663 307.107 247.956 307.814 247.226 308.543C246.456 309.323 245.686 310.103 244.893 310.907C244.069 311.733 243.245 312.56 242.396 313.411C240.11 315.706 237.829 318.005 235.549 320.306C233.089 322.787 230.624 325.263 228.158 327.738C223.886 332.03 219.616 336.326 215.349 340.623C208.598 347.42 201.837 354.207 195.074 360.993C192.76 363.316 190.445 365.638 188.13 367.961C187.552 368.542 186.973 369.122 186.377 369.72C179.792 376.329 173.209 382.94 166.626 389.552C166.025 390.157 165.423 390.761 164.803 391.384C155.064 401.167 145.332 410.959 135.603 420.752C125.606 430.813 115.598 440.863 105.58 450.903C99.406 457.092 93.2415 463.289 87.0892 469.5C82.8668 473.76 78.6335 478.009 74.3915 482.25C71.9478 484.694 69.5093 487.143 67.0838 489.604C64.4439 492.279 61.7859 494.934 59.1228 497.585C58.3706 498.356 57.6184 499.127 56.8435 499.922C50.6882 505.986 42.7614 511.804 33.8984 512.727C23.3439 512.422 14.5627 510.906 7 503C2.08126 495.882 -0.139827 490.66 -0.4375 482C-0.498086 480.783 -0.558672 479.566 -0.621094 478.312C0.0989932 468.04 7.48936 459.632 14.5041 452.774C15.3464 451.927 16.1886 451.08 17.0564 450.207C19.3695 447.885 21.6954 445.578 24.0277 443.276C26.5498 440.78 29.0544 438.266 31.5612 435.755C35.8976 431.415 40.2447 427.087 44.5995 422.766C50.8957 416.519 57.1751 410.255 63.4506 403.987C73.6347 393.816 83.8321 383.658 94.0381 373.509C103.947 363.655 113.85 353.795 123.744 343.926C124.355 343.317 124.966 342.708 125.595 342.08C128.659 339.024 131.723 335.967 134.787 332.911C160.172 307.588 185.579 282.287 211 257C209.615 253.881 208.016 251.771 205.6 249.371C204.893 248.663 204.186 247.956 203.457 247.226C202.677 246.456 201.897 245.686 201.093 244.893C200.267 244.069 199.44 243.245 198.589 242.396C196.294 240.11 193.995 237.829 191.694 235.549C189.213 233.089 186.738 230.624 184.262 228.158C179.97 223.886 175.674 219.616 171.377 215.349C164.58 208.598 157.793 201.837 151.007 195.074C148.684 192.76 146.362 190.445 144.039 188.13C143.458 187.552 142.878 186.973 142.28 186.377C135.671 179.792 129.06 173.209 122.448 166.626C121.843 166.025 121.239 165.423 120.616 164.803C110.833 155.064 101.041 145.332 91.2481 135.603C81.1867 125.606 71.1369 115.598 61.0969 105.58C54.9084 99.406 48.7106 93.2415 42.5004 87.0892C38.2399 82.8668 33.9905 78.6335 29.7495 74.3915C27.3057 71.9478 24.8574 69.5093 22.3955 67.0838C19.7211 64.4439 17.066 61.7859 14.4147 59.1228C13.6437 58.3706 12.8727 57.6184 12.0783 56.8435C6.0135 50.6882 0.196307 42.7614 -0.726562 33.8984C-0.422329 23.3439 1.09358 14.5627 9 7C16.1177 2.08126 21.3404 -0.139827 30 -0.4375Z" fill="black"/>
</g>
<defs>
<clipPath id="clip0_16_3">
<rect width="512" height="512" fill="white"/>
</clipPath>
</defs>
</svg>
